<?xml version="1.0" encoding="utf-8"?>
<!-- Generator: Adobe Illustrator 19.1.0, SVG Export Plug-In . SVG Version: 6.00 Build 0)  -->
<svg version="1.1" xmlns="http://www.w3.org/2000/svg" xmlns:xlink="http://www.w3.org/1999/xlink" x="0px" y="0px"
	 viewBox="0 0 1313.3 875.5" style="enable-background:new 0 0 1313.3 875.5;" xml:space="preserve">
<style type="text/css">
	.st0{fill:none;}
</style>
<g id="on-active-spectatorship">
	<path class="st0" d="M17.3,374.5c0,0,117.2-30,136-29.2c0,0,20.7,38.7,22.7,40c2,1.3,16.5-4.2,16.5-4.2l35.8,105.2l2.7,10.2
		c0,0-140.3,30-150.8,29.5l-1.3-9.5l-7.2-34.3l-9.1,1.6l-44.2-102L17.3,374.5z"/>
</g>
<g id="can-this-be-something-else">
	<path class="st0" d="M321,337.8c0,0,5,6.3,6.5,5.1c1.5-1.1,105.5-58.6,105.5-58.6s8.5-7,2.5-17L273,209.8c0,0-20,15-105,50.5
		l-4,6.5c0,0-18,3,0,14.5l147.5,57C311.5,338.3,315,339.8,321,337.8z"/>
</g>
<g id="screen-1">
	<polygon class="st0" points="349.5,0 369,136.2 1015,299.2 1019,0 	"/>
</g>
<g id="everyday-urban-design">
	<path class="st0" d="M1313.3,90.7v582l-13.6,17.3l-193.3-64v-6l62.7-115l2.3-4.3c0,0-64.3-18.3-69.3-20v-5l68.3-129.7l-59-12.7
		l-5.7-12L1241,80.7L1313.3,90.7z"/>
	<path class="st0" d="M365,519.7l189.5-140.5l4.5,4l12.5,23l14-8.5c0,0,19,81.5,67.5,146c30.7,40.8,69.5,134.5,83,146.3L557,791.7
		l-15,4.5h-6l12-11.5c0,0,10.5-8,12-8s8.5-5.5,8.5-5.5l20-19.5c0,0,11.5-22-13-25c0,0-27.5,9-50.5,33c0,0-34.7,11.1-61.5,29
		c-25.5,17-39.5,52-39.5,52s-38.5-87-39-90l-17.5,11c0,0,8.5-31,6-44.5l5.5-5.5c0,0-15.5-23.5-18-28s42,8.5,51.5,8.5s21-0.8,24-2.2
		s17.5-15.3,3.5-19.3s-27-6.5-27-6.5l-40.5-14l-30-4l-5.5-12.5l3.5-2.5c0,0,18.5-3,34.5-14.5l5-2c0,0,15-1.5,36.5-7s47-11.5,42.5-26
		c0,0-2.5-4-7-5s-27,8-36.5,7s-46.5,1-48.5,1.5s-23,9-23,9s10-13,12.5-16.5s24-7.5,33-15c0,0,38.5,0,41-16s-28-7.5-28-7.5l-20,4
		l-11.5,1.5l-30,7.5c0,0,2.5,1,6-11C347,541.2,360.5,530.7,365,519.7z"/>
</g>
</svg>
