<?xml version="1.0" encoding="utf-8"?>
<!-- Generator: Adobe Illustrator 19.1.0, SVG Export Plug-In . SVG Version: 6.00 Build 0)  -->
<svg version="1.1" xmlns="http://www.w3.org/2000/svg" xmlns:xlink="http://www.w3.org/1999/xlink" x="0px" y="0px"
	 viewBox="0 0 1313.3 875.5" style="enable-background:new 0 0 1313.3 875.5;" xml:space="preserve">
<style type="text/css">
	.st0{fill:none;}
</style>
<g id="poster-laslo">
	<path class="st0" d="M1011,0c0,0,11,216,9,229L499,39l-55-15l-8-24H1011z"/>
</g>
<g id="in-order-of-disappearance">
	<path class="st0" d="M418.3,285.7l58,244.7c0,0-4,8,55.3-58.7L480.3,233H475L418.3,285.7z"/>
</g>
<g id="red-blue-leaflet">
	<polygon class="st0" points="1177.7,611.7 1096.3,633.7 1093.7,629 1013,645 980.3,348.3 1079,327 1101,193.7 1246.3,257 
		1211,419.3 1189.7,487 1174.3,536.3 	"/>
</g>
<g id="graphic">
	<polygon class="st0" points="784.3,640.3 1253,857 1241.7,875.5 1038.3,875.5 731,737 734.3,713.7 731,711 734.3,685.7 	"/>
</g>
<g id="glossy-garment">
	<path class="st0" d="M789.7,875.5l-62-30.5c0,0-146.7-47.3-152.7-47.3l-8.7,12L535,801l-37.3,74.5H789.7z"/>
</g>
<g id="the-start-of-the-end">
	<path class="st0" d="M438.3,875.5c2,0,96-85.2,96-85.2v-32.4L431,706.3L263,845v23.3l5.3,7.2H438.3z"/>
</g>
</svg>
