<?xml version="1.0" encoding="utf-8"?>
<!-- Generator: Adobe Illustrator 19.1.0, SVG Export Plug-In . SVG Version: 6.00 Build 0)  -->
<svg version="1.1" xmlns="http://www.w3.org/2000/svg" xmlns:xlink="http://www.w3.org/1999/xlink" x="0px" y="0px"
	 viewBox="0 0 1313.3 875.5" style="enable-background:new 0 0 1313.3 875.5;" xml:space="preserve">
<style type="text/css">
	.st0{fill:none;}
</style>
<g id="drift-festival">
	<path class="st0" d="M447,0H260.3L187,91.7c0,0,183.3,126.7,206,139.3L523,71.7l-23.3-22l-16,9.3h-5.3l-5.3-5.3l0.7-4.7l12.7-10
		L447,0z"/>
	<polygon class="st0" points="500.3,0 583.7,0 542,50.3 530.3,40.3 537.7,36.3 542,25.2 528.3,7.7 514.3,14.3 	"/>
	<path class="st0" d="M0,223L104.3,98.3l458.7,304l-45.3,62l34,24.7L424.3,655c0,0-53.3,43.3-135.3,150l-60.7-40.7l-78,111.2H0V509
		l89.7-53.3c0,0,5.3-5.3-16-35.3l5.3-6.7l2.7-14.7l-17.3,1.3L59,395L5,426.3l-5-2.7V223z"/>
</g>
<g id="m-r">
	<path class="st0" d="M544.5,143.5c0,0-37,44-51,71s-64,90-64,90L627,449l45.5-17c0,0,12-4.5,16,2s11.5,23.5,11.5,23.5l23,60
		l26,19.5l25-30.5l52.5-74.5l34-48.5l-90-81.5L544.5,143.5z"/>
	<polygon class="st0" points="663,0 583.7,92.5 654.5,158.5 900.5,328.5 1092,82 963.5,0 	"/>
</g>
<g id="phone-screen">
	<path class="st0" d="M670.5,658l78.5-29.2c0,0,9.8-4,5.8-14s-67.2-175.2-67.2-175.2s-5-8.8-13.8-4s-72.5,26.8-72.5,26.8
		s-9.2,4.2-5.5,12.2s63,175.2,63,175.2S662.6,660.9,670.5,658z"/>
</g>
<g id="imposition">
	<path class="st0" d="M675.3,875.5c0,0,97.2-126.5,102.7-132L670.3,663c0,0-7.7,5.3-15.3-10.3L509.3,544c0,0-86,109-85,109
		S402,670,399,676l-33.3,36c0,0-77.7,90.7-78.7,96.3L228,765l-78.3,110.5H675.3z"/>
</g>
</svg>
