<?xml version="1.0" encoding="utf-8"?>
<!-- Generator: Adobe Illustrator 19.1.0, SVG Export Plug-In . SVG Version: 6.00 Build 0)  -->
<svg version="1.1" xmlns="http://www.w3.org/2000/svg" xmlns:xlink="http://www.w3.org/1999/xlink" x="0px" y="0px"
	 viewBox="0 0 1291.4 861.1" style="enable-background:new 0 0 1291.4 861.1;" xml:space="preserve">
<style type="text/css">
	.st0{fill:none;}
</style>
<g id="the-color-of-pomegranate">
	<path class="st0" d="M145,170c1.5,0,189.5-3,189.5-3l5.5,272.5H153L145,170z"/>
</g>
<g id="gerrit-rietveld-graduation-show-2018">
	<polygon class="st0" points="0,549 0,167 109,167 116,549 	"/>
</g>
<g id="th-voice-of-materials">
	<polygon class="st0" points="569.3,167 378.3,167 381.7,441 573,441 	"/>
	<path class="st0" d="M641.3,167H573l3.3,274l190.3-1.5L762,163.3l-73.7,2l3.7,33.9c0,0,4.5,11.2,7.8,13c0,0-2.5,18.8-3.8,19.5
		c0,0,4.8,36.2,4,38.8s0.8,28.8,0.8,28.8l1.5,26.5l2.2,22.5c0,0,3.8,10.8,3.8,13.5s8.8,17,9.2,25.8s1,12.8,1,12.8s-15.8,5.2-30.8,6
		c0,0-2.5,9.8-2.5,11.8s-2.8,14.2-2.8,14.2l-8.5-1.7l-1.2,1.7l-10.8-1.7l-2.5-1.3c0,0-1.5-11.2-2-12.2s-3-10.5-2.5-11.8
		s-9.3,1.2-9.3,1.2v9.8v14.3c0,0-22.5,3.3-32.2-1l-1.5-12.8V409l-1.2-2.2l2-5l0.2-13.5l-0.8-45.8l7.5-78.2l6-34.5l2-8.8
		c0,0,11.2-40.8,13.2-47.8L641.3,167z"/>
</g>
<g id="the-start-of-the-end">
	<path class="st0" d="M944,478c0,0-18,0.3-30.3,2.3c0,0-63.3-6-91.7-1.2l-8.3-326.5c0,0,65.3,0.3,94.3-3.7c0,0,87.7,3.3,89,2.3
		l1.7,289.7l-55,2L944,478z"/>
</g>
<g id="blue-poster-laslo">
	<polygon class="st0" points="1031.5,149 1231.5,152.5 1229,433 1031.5,433 	"/>
</g>
<g id="screen-1">
	<polygon class="st0" points="252.7,559.7 138.7,558.7 130,629 246,630.1 	"/>
</g>
<g id="screen-2">
	<polygon class="st0" points="423.6,571 325.3,571 327.7,508 425.9,508 	"/>
</g>
<g id="screen-3">
	<polygon class="st0" points="669,568 496.5,571 494.5,471.7 667,468.7 	"/>
</g>
<g id="screen-4">
	<polygon class="st0" points="952.9,582.2 848,577.3 840.7,642.7 948,650.7 	"/>
</g>
<g id="screen-5">
	<polygon class="st0" points="1115.7,650.7 987,646.3 987,568.3 1115.7,571.3 	"/>
</g>
<g id="screen-6">
	<path class="st0" d="M1166.3,448.7c0,1,5,119.7,5,119.7l-48.3,2c0,0,0.8-5.3-6-6.3s-132.2-2.5-132.2-2.5s-4.8,1-4.5,5.2
		s0.2,4.2,0.2,4.2l-25,1.2l-2.6-120.5L1166.3,448.7z"/>
</g>
</svg>
