<?xml version="1.0" encoding="utf-8"?>
<!-- Generator: Adobe Illustrator 19.1.0, SVG Export Plug-In . SVG Version: 6.00 Build 0)  -->
<svg version="1.1" xmlns="http://www.w3.org/2000/svg" xmlns:xlink="http://www.w3.org/1999/xlink" x="0px" y="0px"
	 viewBox="0 0 1313.3 875.5" style="enable-background:new 0 0 1313.3 875.5;" xml:space="preserve">
<style type="text/css">
	.st0{fill:none;}
</style>
<g id="gerrit-rietveld-academie-fashion-show-2018">
	<path class="st0" d="M0,654V243c0,0,28-69.3,28-78.3c-1.7,0,491.7,114,496.6,121.3c0,0-39.6,148.7-38.6,161c0,0-20,21-24.3,26.3
		c0,0-12,7.3-16.7,14.3c0,0-12.3,5.7-23.3,15.7c0,0-3.7,3.7-9,13c-5.3,9.3-13,14.7-13,14.7l-4.3,4.7l-33,25.3L304,603.3
		c0,0-58,39-63.3,42.3c0,0-1-5.3-8-6.3s-17-1-17-1l-8.3-4.3h-5l-24,13l-7.3,3l-5,8c0,0-9.3,9.6-14,8.7c-1.7-0.3-135-19-135-19L0,654
		z"/>
	<path class="st0" d="M322,693.3L424,709l16-100.3l15-21.3c0,0-21,1-46.7,24.3C408.3,611.7,361.7,644.7,322,693.3z"/>
</g>
<g id="phone-screen-1">
	<polygon class="st0" points="284,92 288.3,154 176,151 173,92 	"/>
</g>
<g id="foam-x-ruang-mes-56">
	<path class="st0" d="M508.7,110.3l-59.3,65L297,35.3L329.7,0h208.7c0,0-13,8-28,21.7l-3.7,3c0,0-15.7,9-30.3,21
		c0,0-12.3,7.3-19.3,17.3s1.7,12.7,1.7,12.7l3.7-0.3l4-2l4-1.7l6.3-3.7l10.7-6.3c0,0,3.7-1.7,6.7-2.3c3-0.7,9.3-3.7,9.3-3.7
		S515,48,521,44.5s-4.8,5-4.8,5S495.8,62.2,495,63s-28.2,21.8-28.2,21.8s-9,7.8-9,10.8s0,5.8,0,5.8s-0.8,8.5,8.2,6l5.5-3.2l3.8-2.8
		c0,0,10-8,10.8-8s5.8-3.5,5.8-3.5l19-9.2l10.8-7.5l7.2-5l-7.8,7.8l-7.2,7.8l-9.2,8.5l-7.5,5c0,0-11.2,8-12.5,9s-5.4,13.1,4.8,13.8
		l2.5-1c0,0,0.6,0.4,8.8-4S508.7,110.3,508.7,110.3z"/>
</g>
<g id="type-specimen">
	<path class="st0" d="M781,49.5l65,38.2V92L701,338.5c0,0-13,6.2-20,14.2c0,0-3.3,3.7-7.7,4.3c-4.3,0.7-16.7,12-16.7,12l-8.3,5
		l-127.5-74l3.7-14.1l-53.2-15.3l-16.3-10v-3l99-163L570.2,82l5-4.5l11-5.5l8.5-6l3.8-2.8c0,0,13.2-5.2,20-12.5s18-7,18-7l14-1
		c0,0,6.5,0.2,7.2,0s15.2-1.2,15.2-1.2s32.5,0.3,52,1.5C745,44.2,781,49.5,781,49.5z"/>
</g>
<g id="studium-generale-_x26_-uncut-2018">
	<polygon class="st0" points="547,455 671.5,420.5 695,497.5 570,530.5 	"/>
</g>
<g id="gerrit-rietveld-graduation-show-2018">
	<path class="st0" d="M751.5,538.8l91.5,19c0,0,2.8,1,5.5-2.5l12.2-55.2c0,0,0.2-3.2-3.5-4.2s-91.9-19.4-91.9-19.4s-3.7-1.3-4.8,2
		c-1.2,3.3-12.2,56.7-12.2,56.7S747.9,538,751.5,538.8z"/>
</g>
<g id="dear-eleonora-here-are-your-written-critiques">
	<path class="st0" d="M430.3,875.5l20-35.9c0,0,2-8.7-4.7-15.3l2.7-4c0,0,43.3-17,50.3-26s11.3-11,11.3-11s3-2.7,8.3-7
		c5.3-4.3,23.3-17.3,23.3-17.3l15.3-10.3c0,0,11-8,10.7-12c-0.3-4,0.3-13-11-12.3c-11.3,0.7-24.7,12.7-27.3,13
		c-2.7,0.3-23.3,15.3-25.3,15.3s-5,0.3-5,0.3l14.7-33c0,0,7.7-1,14.3-5c0,0,0.7,1,3.3,0c0,0,17,16.7,24.7,7.3l3.7-9
		c0,0-15.7-13.3-19-16c-3.3-2.7-2.3-5.3-5.7-5.7c-3.3-0.3-5,0-5,0l52.3-112l15,7.7l2.7-4.3l22.7,10c0,0,154.3,79.7,157.3,79.3
		c3-0.3-6.7-5.6-6.7-5.6L784,670l105.3,45.7c0,0-19.3,26.3-21.3,27.7c-2,1.3-16.3,19.3-17.3,20.3s-18.3,14.7-20.3,15.3
		s-7.3,3.7-7.7,4.7c-0.3,1-1.7,3-1.7,4.3s-0.3,5-0.3,5l-11.3-1.7L785,875.5H430.3z"/>
	<path class="st0" d="M956.8,743.5l73.8,31.5l-1.2,2.2h1.2L989,875.5h-24.5l13.8-39.5l-12.5-4.8c0,0,3-6.5-4.5-23.8
		c0,0-9-20.2-9.5-22.5s-6.5-19.5-6.5-19.5s3.8-7.2,4.8-14.5C950,751,955,746.2,956.8,743.5z"/>
</g>
<g id="Calque_9">
</g>
</svg>
