<?xml version="1.0" encoding="utf-8"?>
<!-- Generator: Adobe Illustrator 19.1.0, SVG Export Plug-In . SVG Version: 6.00 Build 0)  -->
<svg version="1.1" xmlns="http://www.w3.org/2000/svg" xmlns:xlink="http://www.w3.org/1999/xlink" x="0px" y="0px"
	 viewBox="0 0 1313.3 875.5" style="enable-background:new 0 0 1313.3 875.5;" xml:space="preserve">
<style type="text/css">
	.st0{fill:none;}
</style>
<g id="can-this-be-something-else">
	<path class="st0" d="M123.7,726.7l-44-5.3v-2.7l-8-3L82.3,539l112.3,8.3l6.7-300.7l5.7-8.7c0,0,8.7-2,10.3,0c1.7,2-6,304.7-6,304.7
		s48.3,18.3,69.3,29l-8,97.3l-6.3,54.3c0,0-6,9.7-7.7,9c-1.7-0.7-1.3-2.7-1.3-2.7S265,712,265,709s3.3-20.3,3.3-20.3
		s4.7-18.7,2-21.7c-2.7-3-8.7-0.3-8.7-0.3s-3.2,2.7-3.5,3.5c-0.3,0.8-10.3,32.7-11.2,32.7s-3.2,1.8-3.7,3c-0.5,1.2-3,7.7-3,7.7
		s-24.5,21.3-26.3,21.2c-1.8-0.2-6.2,2.7-6.2,2.7l-21.7-6.5c0,0-5.3,1-6.8,0.8c-1.5-0.2-5.5-2.2-6-4l-31-1.5c0,0,1.3-10.5-4.8-11.2
		s-9.3,6.8-9.3,6.8L123.7,726.7z"/>
</g>
<g id="orange-slice-type">
	<path class="st0" d="M288.2,510.8c-0.1-1.2,133.2-16.8,133.2-16.8l10,135.5c0,0-133,23-139.5,25.2
		C289.3,655.7,289,521.2,288.2,510.8z"/>
</g>
<g id="escaping-modernism">
	<path class="st0" d="M851.5,103"/>
	<path class="st0" d="M1020.5,113.5c0,0-156.5-6-169-10.5l-7,5.2c0,0-96.8,227.4-112.8,244.8L669,467.7c0,0-46.7,72-46,76.7l0,2.7
		l55.5-9l71-13l45-11.5l8.5-1.5l8-13.5L873,392l52.5-90l53-103.5l34.5-75C1013,123.5,1017,117.5,1020.5,113.5z"/>
</g>
<g id="warehouse-a-place-for-clothes-in-context">
	<ellipse class="st0" cx="271.3" cy="249.6" rx="22" ry="21.6"/>
</g>
<g id="drift-festival">
	<ellipse class="st0" cx="634" cy="214.4" rx="19.5" ry="24.9"/>
</g>
<g id="see-also">
	<path class="st0" d="M374.2,339.2l41.5,1.5l5.8,3c0,0-8.5,62.8-20.8,90l-45.2-2.2l-2.2-2.5L374.2,339.2z"/>
</g>
<g id="yellow-poster-laslo">
	<path class="st0" d="M633,574.4c1-1.3,117.5-18.4,130.5-27.4l-10,17c0,0-64,155.5-116,218.5c0,0-4.5,6-4.5,13l-139,48
		c0,0,74.5-124.5,77-136.5c0,0,40-91,47-105C618,602,621,589.3,633,574.4z"/>
</g>
<g id="hold-me-now">
	<path class="st0" d="M1028.3,875.5L947,784.3l70.3-62.7l40.3,46.3c0,0-7,15.3-7,18.3s0.3,6.3,1.7,6.7c1.3,0.3,3.7,2,5.3,2
		c1.7,0,1.3,3.6,1.3,3.6s0,8.1,2,11.1s7.3,2.3,7.3,2.3l2.7-1.3c0,0-2,5-1.7,8c0.3,3,7,6,7,6s3,0.7,5,0c2-0.7,2-0.7,2-0.7l2.3,2.7
		c0,0-1,5.3,0,6.7c1,1.3,1.7,3.7,3.7,4c2,0.3,6.3,1.7,8.3,0.3c2-1.3,6.3-7.3,6.3-7.3l1.7-6.3l2.7,3c0,0,0.7,5,3,7.3
		c2.3,2.3,7.7,3.7,7.7,3.7l34.7,37.5H1028.3z"/>
</g>
</svg>
