<?xml version="1.0" encoding="utf-8"?>
<!-- Generator: Adobe Illustrator 19.1.0, SVG Export Plug-In . SVG Version: 6.00 Build 0)  -->
<svg version="1.1" xmlns="http://www.w3.org/2000/svg" xmlns:xlink="http://www.w3.org/1999/xlink" x="0px" y="0px"
	 viewBox="0 0 1313.3 875.5" style="enable-background:new 0 0 1313.3 875.5;" xml:space="preserve">
<style type="text/css">
	.st0{fill:none;}
</style>
<g id="selected">
	<path class="st0" d="M203.7,0L121,245l300.7-39.3c0,0,49.3-118,53.3-122.7s28.7-78,30.7-83H203.7z"/>
</g>
<g id="studying-at-the-rietveld-academie-with-a-disability-or-chronic-llness">
	<path class="st0" d="M485.3,570.7l-147,44.3c0,0-81-36.7-98.7-37.3c0,0-17.3-26.3-56.3-31c-39-4.7-31-4.3-31-4.3l16.7-4l-15-2
		l150-40c0,0,63,0.3,83.3,38C387.3,534.3,454.7,545.3,485.3,570.7z"/>
</g>
<g id="screen-2">
	<polygon class="st0" points="609,208.5 902.5,274 872,509 586.5,418 	"/>
</g>
<g id="yellow-poster-laslo">
	<path class="st0" d="M1007,314.5c0,0,30.5,9.5,48,8l30.5-223c0,0-20-7.5-39.2-5.5c0,0-8.2,1-4.8,3.5l-8.5-1l-6.5,112L1007,314.5z"
		/>
</g>
<g id="focus-light">
	<path class="st0" d="M1074.7,680.3c0,0-200.3-56-215.7-64.7c0,0-32.7,11.7-50.7,23.3l-52,18.3l2.3,2.7l-4.7,1.7
		c0,0,218.7,75.7,234.7,77.3l5-2l1.8-4.2l0.8-7.2l1-3l5.7-4.8l5.3-35.2l2.5-1.8l3,0.7l6-6.2l0.8-3.5l2.5-1.7l10.3,2l2.5,1.7
		l-0.2,2.5c0,0,29.2,10,33.2,13C1069,689.3,1071.8,684.2,1074.7,680.3z"/>
	<polygon class="st0" points="1036.5,685.8 1062.3,695.7 1043.7,706.5 1041.5,706.5 1038,702.5 	"/>
</g>
<g id="lessons-from-the-conversation-pit">
	<path class="st0" d="M935.3,835.2l2-10.2l-29.7-58c0,0-86-6.8-94.8-1.5c0,0,0.2,6.5,0,7.2c-0.2,0.7,22,60.2,22,60.2
		S926.8,836.5,935.3,835.2z"/>
</g>
</svg>
