<?xml version="1.0" encoding="utf-8"?>
<!-- Generator: Adobe Illustrator 19.1.0, SVG Export Plug-In . SVG Version: 6.00 Build 0)  -->
<svg version="1.1" xmlns="http://www.w3.org/2000/svg" xmlns:xlink="http://www.w3.org/1999/xlink" x="0px" y="0px"
	 viewBox="0 0 1313.3 875.5" style="enable-background:new 0 0 1313.3 875.5;" xml:space="preserve">
<style type="text/css">
	.st0{fill:none;}
</style>
<g id="goblin">
	<path class="st0" d="M0,804V437.8c0,0,5-2.8,7,13.2s2.7,156,3.3,160c0.7,4,2.7,16,7.3,20s4,31.3,4,31.3s-4.7,23.3,8,30
		c12.7,6.7,24.7,3.3,34-2c9.3-5.3,24-18,24.7-20c0.7-2,12.7-16.7,12.7-19.3s-2-19.3-6-24.7c-4-5.3-4-35.3-2-54
		c2-18.7-4.7-124.7-6-140C85.7,417,76.3,292.3,75,289s-40-39.3-43.3-46S6.3,211.7,0,207.7v-89c0,0,52.7,40.7,55.7,42.7
		s18,11,22.7,15.7c4.7,4.7,16,4,16,4s14.3-2.3,11.7-19.3s-9.7-26-13.3-45.7C89,96.3,91,83.3,91,83.3s24.3,1,32.7,7s8,7,8.7,8.3
		c0.7,1.3,6.7,7,6.7,7s13,15.3,14.7,16.3c0,0-4.7,19-2.3,29c0,0,4,55.3,5.7,59.3c0,0,4.3,52.3,4.3,54.3s2.3,13.3,2.3,13.3
		s3.3,27,3.3,31s-1.3,30.3-1.7,34.3c-0.3,4,4.7,34.7,6.7,38.7s5,18.7,4,31s2.7,35.3,2.7,35.3s3.7,40,6,43.3
		c2.3,3.3,9.7,11,12.7,11.7c3,0.7,32.7,9.7,42,16.7c9.3,7,20.7,16.3,24.7,22.7c4,6.3,17,32,11.7,57.7c-5.3,25.7-11.7,35.7-13,40
		c-1.3,4.3-11.7,24.3-11.7,38c0,13.7,2.7,41.3,33.3,49.7s54.7-25.7,55-39c0.3-13.3,6.7-27.3-4.7-50.7C323.3,615,321.3,591,321.3,591
		s-4.3-13.7,14.7-34s-6.3-154-6.3-156s-5.3-51.3-5.3-54.7c0-3.3-17.7-81.7-17.7-84c0-2.3-17.3-60-20.7-65.7
		c-3.3-5.7-18.7-39.7-35-51.7s-16.3-12-16.3-12s1.3-4.7,1.3-7.3s-6.7-21.3-9-26c-2.3-4.7-5.7-13.3-7.7-16.3s-9-14.7-9-14.7
		s-5.3-7,3.3-6c8.7,1,12.3,1.3,14,2c1.7,0.7,11,3.1,23.3-2.1c12.3-5.2,8-10.6,8-10.6s-5.7-2.7-8.7-2.7s-12-2-15.7-3.7
		c-3.7-1.7-21.7-4-30.7-8c0,0-23.7-0.7-26.3,0c0,0-7.3-1.3-14-2.3c0,0-6.7,2.7-10,2c-3.3-0.7-20.7-8-24.3-8c-3.7,0-36-2.7-36-2.7
		S94.7,6.7,93,0h250.1c0,0-3.4,16.7-29.1,37s-21,27.3-21,27.3s15.7,16.7,19.3,25c3.7,8.3,34.7,56.3,37,61c2.3,4.7,8,17,17,12.3
		c9-4.7,26.7-26.3,27.3-28.3c0.7-2,23-40,24-49.7S427.3,27,427,21s-4.3-21-4.3-21h156.7c0,0-5,25-14.7,37c0,0-58.7,2.7-61.7,3
		l-0.7,4.3l4,7.7h-6l15,25.3l-18.3,3c0,0,31,32.7,31.3,35c0.3,2.3,6,72,6,72s20.3-6,26-10c0,0,5.7,21,7,47.7c0,0,13.3,9,20,33
		c0,0-39.3,33-39.7,38.7c-0.3,5.7-3.3,12-3.3,12s7,96.7,6.3,100c-0.7,3.3,9.7,102.7,9.7,102.7s7.7,42.3,7.7,49
		c0,6.7,12.3,80.3,12.3,85.3s1.3,20.7,1.3,20.7l-6.7,60.2c0,0-13.9-7.7-20.5-9.8c-7.8-2.5-19.5-0.4-21.2,0.3c-2.7,1-14,2-14,2
		s-16.3-1-21.3-0.3c-5,0.7-15.3,7.7-15.3,7.7S465,735,461,736.7c-4,1.7-20.3,11-20.3,11s-26,11-30,12.7c-4,1.7-23,8-23,8L359.3,786
		c0,0-7.3-2.7-11.7-1c-4.3,1.7-12.7,5.7-12.7,5.7l-7,2.3l-13.7,7.7l-6.3,1l-9.7,4.3h-9l-7.7,2l-11-1.7c0,0-12,1.7-13.3,1.7
		c-1.3,0-15.3,6-15.3,6s-20.3,13.3-25,14.7c-4.7,1.3-15,13.3-15,13.3s-11.7,8.3-14,10.7c-2.3,2.3-5.7,8-5.7,8l-5.3,6.7
		c0,0-8.3,6.7-8.3,8.2c0,1.5-148-1.5-148-1.5s-2-12.7-4-17S0,807.3,0,804z"/>
	<path class="st0" d="M148,593c0,0,11.5-16,23.5-8s14,24,14,24s-2.5,16-8,32.5c0,0-12.5,13-8,22.5c0,0,1,11.5,12.5,26.5
		s12,22.5,12,22.5s1,19-18,27s-38-22-38-22s-17-30-17-33s-2.5-7,2.5-12.5s5.5-13,5.5-15s-3.2-13-8.6-20s-0.4-15.5,2.1-18
		s9.5-5,13-7.5S142.5,598.7,148,593z"/>
	<path class="st0" d="M505.7,541.7c0,0,7.7,3,7.7,15.3S499,579.3,499,579.3s-18.3,10-23.7,17.7c-5.3,7.7-9.3,19.3-11,24.3
		c-1.7,5-5,17-14,26s-26.7,12.3-26.7,12.3s-19.3,4.3-29.3-6.3c-10-10.7-8.7-17.7-8.7-17.7s-2.7-9.3,14.7-24.3
		c17.3-15,18-22.3,18-22.3s16.7-24,25.3-26.7c0,0,5.7-7,24-14.3c18.3-7.3,29.7-8.7,29.7-8.7S502.2,539,505.7,541.7z"/>
	<path class="st0" d="M477.5,470l-6-90.5l-6.5-80l-7-80.5l-5.5-57.5c0,0-1.5-20.5-16-15c0,0-7.5,4.5-14,11.5s-22,22.5-22,22.5
		l-21.5,22c0,0-20.7,21.2-22,24.5s-3.7,7.3-3.3,25c0.3,17.7,2.3,51.7,2.3,51.7l8.7,77.3l10.7,75c0,0,2.3,18.7,5,25.3
		c2.7,6.7,5.3,9,7.3,14.3c2,5.3,0.7,12.7,4.7,17c4,4.3,8,3.7,8,3.7s9.5-2.7,15.2-10.7c5.8-8,15.4-21.7,20.4-24.7s11.3-6.3,17.7-5.7
		c6.3,0.7,14.7,7.3,14.7,7.3S478.6,487,477.5,470z"/>
	<path class="st0" d="M486,821.3c0,0,5,3.7,15.3,5.3l7,4.7l14.3,20.3c0,0-46,21.7-46.7,23.9h-78.3c0,0,5.3-21.2,0-30.9l8.7-6.7
		c0,0,8.3-6,10.7-6s7,0,7,0s7,2.3,10.7,2.3c3.7,0,2-1,9.3,0.7s14.7-3,14.7-3l7-4.3l3.7-2l5.3-1.3h2c0,0,8.7-1,9-2"/>
</g>
<g id="valiz-folder">
	<path class="st0" d="M509.5,758.5L732,654c0,0,17,19,35.5,45s45.5,59.5,45.5,59.5s46,57.5,50.5,59.5l-2.5,5.8l-99.8,51.8H538.5
		c0,0-16.2-25.8-21.2-31.8s-26.2-36.2-30-38.2c0,0,5-1.5,12.5-5.2c0,0,2.8,0.5,7.8-2.8c0,0,8-1,11.8-3.5c0,0,21-0.8,23.2,0.5
		s15.5,4.8,15.5,4.8s15.5,2.8,20-2.2s1.8-11,1.8-11s0.5-2.5-9.5-7.2s-14.8-8-18.5-9.8s-19.8-2.2-19.8-2.2s-12.8-0.2-18.8-3.2
		S509.2,760.2,509.5,758.5z"/>
</g>
<g id="kumusta-kabayan">
	<path class="st0" d="M840,101.7c0,0-23.3-52.7-42.3-78.7c0,0-285,19-294.7,16.7V44l3,8.2l-5.5,0.8L515,77.2L497.5,80
		c0,0,26,27.5,42.5,49.5s19,41,19,41s8.2,34,7.8,48l1.2,8c0,0,7,2.2,16.2,19.5s14.5,99.8,14.5,99.8l2,101l296.5-41.2V394l39.5-4.2
		l4-2c0,0-19.2-90.2-27.5-106S895.8,229,877,218l33-2.5c0,0,9.2-0.2,26.2-17s30.2-33.8,30.2-33.8l18.2-21.5l-17,3.8
		c0,0-5.1,8.8-10.2,13.9c0,0-2.4,2.8-3.9,4.8s-7,4.2-7,4.2s-13,5.9-15.9,7.1s-21.5,4.4-24,3.5s-3.9-4.2-3.8-4.6s1-4.6,1-4.6l-12.8,9
		c0,0-6.8,2.4-10.1-3S880,168,880,168l13.1-12.1l19.6-15.6l4-3.8c0,0,5.4-8.8,6.9-10.5s0.4-5.6,0.4-5.6l-3.1,2.4l-2.5,0.5l-17.1,9.6
		l-18.4,10l-4.2,2.5l-14.1,12.1l-5.2,4.2c0,0-5.5,4.1-10.8-2.4s1.6-14.8,1.6-14.8l9.5-9.5c0,0,20.6-14.9,21.2-15.8s10-8.2,16.9-11.5
		s9.8-5.8,9.8-5.8l0.1-2.2c0,0-1-2-2.9-1.4s-9.6,3.4-9.6,3.4l-3.6,0.8l-12,4.1l-16.6,6.4l-5.8,2.8c0,0-4.9,3.5-11.8,5.4
		s-11.7,6.4-16.5-0.8C824,113.2,834.2,104.2,840,101.7z"/>
</g>
<g id="in-order-of-disappearance">
	<path class="st0" d="M1055.2,509.8c0,0,0.8,32.5,2.8,36.8c0,0-31.5,11.2-51,15.8s-42.8,10.2-42.8,10.2l-58-179.8l34.2-3.2l0.2-1.8
		l-2-9l70.5-23.2l36.5,100c0,0,11.3,34.2,10.5,47.2L1042,507l0.8,4L1055.2,509.8z"/>
</g>
<g id="gerrit-rietveld-academie-and-sandberg-instituut-_x0A_event-calendar-2018">
	<path class="st0" d="M1105.5,464l21.2-111.8l159,80.5c0,0-35.5,183.2-39.5,188l-151.8-97l10.2-52.5l5.2,5.8l3.2-0.8l1-3.5
		L1105.5,464z"/>
</g>
<g id="white-book">
	<path class="st0" d="M841,690.3l167.3-12.7l9.3,10.3c0,0,5-3.3,11.7-0.7l61,75v2.4l-123,12.9c0,0-82.7,7.7-84.7,7L835,702.3
		l4.7-0.3L841,690.3z"/>
</g>
</svg>
